arrow video brrip of a bay of blood. please seed and enjoy

General
Complete name                            : C:DesktopA Bay of Blood (1971) brripA Bay of Blood (1971) brrip.mp4
Format                                   : MPEG-4
Format profile                           : Base Media
Codec ID                                 : isom
File size                                : 999 MiB
Duration                                 : 1h 24mn
Overall bit rate mode                    : Variable
Overall bit rate                         : 1 662 Kbps
Encoded date                             : UTC 2012-08-25 03:33:02
Tagged date                              : UTC 2012-08-25 03:33:02

Video
ID                                       : 1
Format                                   : AVC
Format/Info                              : Advanced Video Codec
Format profile                           : High@L4.0
Format settings, CABAC                   : Yes
Format settings, ReFrames                : 3 frames
Codec ID                                 : avc1
Codec ID/Info                            : Advanced Video Coding
Duration                                 : 1h 24mn
Bit rate mode                            : Variable
Bit rate                                 : 1 531 Kbps
Maximum bit rate                         : 25.0 Mbps
Width                                    : 1 920 pixels
Height                                   : 1 016 pixels
Display aspect ratio                     : 1.890
Frame rate mode                          : Constant
Frame rate                               : 23.976 fps
Color space                              : YUV
Chroma subsampling                       : 4:2:0
Bit depth                                : 8 bits
Scan type                                : Progressive
Bits/(Pixel*Frame)                       : 0.033
Stream size                              : 920 MiB (92%)
Writing library                          : x264 core 124 r2197 69a0443

Audio
ID                                       : 2
Format                                   : AAC
Format/Info                              : Advanced Audio Codec
Format profile                           : LC
Codec ID                                 : 40
Duration                                 : 1h 24mn
Bit rate mode                            : Variable
Bit rate                                 : 128 Kbps
Maximum bit rate                         : 131 Kbps
Channel(s)                               : 1 channel
Channel positions                        : Front: C
Sampling rate                            : 48.0 KHz
Compression mode                         : Lossy
Stream size                              : 76.9 MiB (8%)
Language                                 : English
Encoded date                             : UTC 2012-08-25 03:33:32
Tagged date                              : UTC 2012-08-25 03:33:39

Menu
